<?xml version="1.0" standalone="no"?>
<!DOCTYPE svg PUBLIC "-//W3C//DTD SVG 20010904//EN"
 "http://www.w3.org/TR/2001/REC-SVG-20010904/DTD/svg10.dtd">
<svg version="1.0" xmlns="http://www.w3.org/2000/svg"
 width="225.000000pt" height="225.000000pt" viewBox="0 0 225.000000 225.000000"
 preserveAspectRatio="xMidYMid meet">

<g transform="translate(0.000000,225.000000) scale(0.100000,-0.100000)"
fill="#000000" stroke="none">
<path d="M576 2235 c-110 -39 -166 -173 -117 -280 36 -79 105 -125 189 -125
88 0 156 43 192 122 77 170 -87 346 -264 283z"/>
<path d="M1448 2171 c-246 -79 -389 -343 -320 -592 43 -154 156 -275 310 -331
81 -30 234 -29 316 1 274 99 403 406 280 666 -57 121 -165 216 -291 255 -84
26 -215 26 -295 1z m275 -80 c111 -38 188 -109 241 -221 28 -59 31 -74 31
-160 -1 -122 -25 -187 -100 -269 -97 -104 -231 -154 -357 -132 -239 42 -394
272 -334 496 37 141 129 238 271 287 68 24 177 23 248 -1z"/>
<path d="M1662 1936 c-17 -19 -42 -55 -57 -79 l-25 -45 -107 34 c-58 19 -112
34 -118 34 -12 0 -42 -57 -34 -63 2 -2 50 -25 107 -52 111 -53 107 -46 76
-122 -16 -36 -21 -37 -109 -6 -36 12 -41 12 -52 -3 -17 -23 -12 -28 62 -60 53
-23 65 -33 65 -52 0 -27 24 -39 45 -22 12 10 28 7 87 -19 56 -26 73 -29 79
-19 14 22 11 26 -51 68 l-60 41 27 47 c14 26 27 48 28 50 1 1 50 -21 110 -48
59 -28 109 -49 110 -48 8 10 25 48 25 57 0 6 -44 40 -98 76 l-98 66 23 70 c39
114 22 159 -35 95z"/>
<path d="M391 1753 c-85 -42 -149 -150 -183 -309 -18 -82 -22 -135 -22 -311
-1 -206 0 -212 21 -235 13 -13 23 -34 23 -46 0 -18 -6 -22 -30 -22 l-30 0 0
-190 0 -190 85 0 85 0 0 190 0 190 -35 0 c-45 0 -48 27 -6 57 l28 22 6 218 c6
218 21 335 52 393 12 21 14 -81 15 -704 l0 -728 34 -34 c38 -38 86 -45 135
-19 60 30 61 40 61 514 0 424 0 431 20 431 20 0 20 -7 20 -430 0 -473 1 -485
59 -514 51 -27 98 -21 137 18 l34 34 0 727 c0 446 4 724 9 720 9 -5 42 -142
56 -229 8 -47 71 -118 144 -161 37 -22 49 -34 44 -45 -4 -8 -10 -73 -13 -145
l-5 -129 -33 -7 c-62 -13 -61 -11 -62 -375 l0 -331 23 -21 c13 -12 28 -22 33
-22 5 0 14 -15 19 -33 14 -45 49 -45 53 1 l3 32 162 -2 162 -3 5 -30 c7 -43
44 -42 48 0 2 24 10 34 32 42 17 7 34 23 40 39 7 18 10 140 8 345 -3 295 -4
318 -22 338 -11 12 -31 21 -48 21 l-28 0 0 125 c0 97 -4 131 -16 150 -16 24
-61 45 -98 45 -12 0 -27 9 -33 19 -7 10 -58 42 -115 70 -140 68 -151 81 -176
210 -32 163 -98 273 -187 315 -50 24 -465 23 -514 -1z m299 -79 c15 -39 12
-53 -15 -66 -19 -8 -31 -8 -50 0 -27 13 -30 27 -15 66 7 20 16 26 40 26 24 0
33 -6 40 -26z m0 -98 c0 -2 11 -88 25 -190 l26 -186 -43 -55 c-24 -29 -45 -54
-48 -54 -3 0 -24 25 -48 55 l-43 54 20 153 c35 253 27 227 72 227 21 0 39 -2
39 -4z m784 -492 c23 -23 27 -48 24 -159 l-3 -100 -162 -3 -163 -2 0 118 c0
84 4 124 14 137 13 18 15 18 64 -3 66 -28 94 -28 123 3 28 29 79 33 103 9z
m74 -436 c-4 -10 -58 -14 -216 -16 -184 -2 -212 0 -212 13 0 13 29 15 216 15
168 0 215 -3 212 -12z"/>
</g>
</svg>
