<?xml version="1.0" standalone="no"?>
<!DOCTYPE svg PUBLIC "-//W3C//DTD SVG 20010904//EN"
 "http://www.w3.org/TR/2001/REC-SVG-20010904/DTD/svg10.dtd">
<svg version="1.0" xmlns="http://www.w3.org/2000/svg"
 width="512.000000pt" height="512.000000pt" viewBox="0 0 512.000000 512.000000"
 preserveAspectRatio="xMidYMid meet">

<g transform="translate(0.000000,512.000000) scale(0.100000,-0.100000)"
fill="#000000" stroke="none">
<path d="M921 5110 c-227 -48 -388 -278 -352 -505 57 -366 499 -514 760 -254
142 143 172 353 76 539 -42 81 -160 177 -253 206 -61 19 -175 26 -231 14z"/>
<path d="M3671 5110 c-281 -59 -436 -374 -313 -634 163 -342 648 -340 810 3
31 64 37 88 40 163 5 96 -6 153 -45 231 -48 96 -160 192 -261 223 -61 19 -175
26 -231 14z"/>
<path d="M625 4040 c-65 -25 -130 -89 -164 -160 l-26 -55 -3 -1805 c-3 -2023
-9 -1850 70 -1937 45 -48 125 -83 188 -83 101 0 205 73 240 167 19 52 20 79
20 701 0 356 3 799 7 985 l6 337 53 0 54 0 2 -1002 c3 -956 4 -1005 22 -1038
46 -87 145 -150 236 -150 97 0 197 67 239 160 20 44 21 60 21 1288 0 987 -3
1242 -12 1242 -20 0 -334 38 -376 46 -49 8 -115 47 -136 79 -15 23 -299 552
-341 635 -11 23 70 -51 236 -216 147 -145 271 -260 294 -272 32 -16 123 -30
430 -66 215 -25 410 -46 434 -46 112 0 211 101 211 215 0 45 -21 102 -51 139
-53 64 -82 71 -469 116 l-355 41 -220 221 -220 221 75 -40 c328 -175 341 -181
424 -188 l79 -8 -5 130 c-5 152 -27 212 -99 281 -81 78 -103 82 -482 81 -304
0 -336 -2 -382 -19z"/>
<path d="M3364 4031 c-109 -51 -174 -158 -174 -286 l0 -64 -337 -192 c-186
-106 -343 -196 -349 -201 -8 -6 -5 -24 12 -66 62 -152 25 -336 -90 -455 -21
-22 -32 -38 -24 -34 15 5 685 386 757 430 l34 21 -6 -642 c-3 -353 -4 -642 -2
-642 1 0 24 12 49 26 32 18 68 28 110 31 l63 6 6 103 c4 85 10 114 31 158 23
47 81 111 128 141 12 7 28 84 62 301 25 160 46 311 46 336 0 26 -9 149 -20
274 -12 125 -20 236 -18 247 2 11 54 -124 117 -301 l113 -321 -51 -323 c-28
-178 -53 -333 -56 -344 -4 -17 -15 -23 -54 -28 -57 -7 -95 -40 -105 -87 -3
-18 -6 -103 -6 -190 l0 -159 -135 0 -135 0 -32 -29 -33 -29 0 -432 0 -432 33
-29 32 -29 645 0 645 0 32 29 33 29 0 432 0 432 -33 29 -32 29 -135 0 -135 0
0 159 c0 87 -3 173 -6 190 -9 43 -44 74 -97 86 l-44 10 53 325 c29 179 53 348
53 376 1 48 -56 223 -243 742 -8 23 -13 42 -11 42 3 0 64 -89 136 -197 72
-109 136 -202 141 -208 6 -6 8 97 6 270 l-3 280 -27 50 c-34 65 -80 108 -148
139 l-55 26 -340 0 -340 0 -61 -29z m517 -2091 c24 -11 64 -20 89 -20 25 0 65
9 89 20 72 33 72 32 69 -72 l-3 -93 -150 0 -150 0 -3 93 c-2 52 1 92 7 92 5 0
28 -9 52 -20z"/>
<path d="M3182 433 c4 -245 8 -265 62 -336 33 -44 113 -86 173 -94 104 -12
209 45 258 141 l30 60 0 195 0 196 -210 5 c-206 5 -211 5 -259 33 -27 15 -51
27 -53 27 -3 0 -3 -102 -1 -227z"/>
<path d="M3824 585 c-4 -9 -4 -98 -2 -198 5 -203 15 -242 78 -305 55 -55 106
-76 185 -77 111 0 182 44 238 149 20 38 22 54 22 241 l0 200 -258 3 c-225 2
-258 0 -263 -13z"/>
</g>
</svg>
