<?xml version="1.0" standalone="no"?>
<!DOCTYPE svg PUBLIC "-//W3C//DTD SVG 20010904//EN"
 "http://www.w3.org/TR/2001/REC-SVG-20010904/DTD/svg10.dtd">
<svg version="1.0" xmlns="http://www.w3.org/2000/svg"
 width="512.000000pt" height="512.000000pt" viewBox="0 0 512.000000 512.000000"
 preserveAspectRatio="xMidYMid meet">

<g transform="translate(0.000000,512.000000) scale(0.100000,-0.100000)"
fill="#000000" stroke="none">
<path d="M2505 4761 c-136 -36 -228 -155 -229 -296 0 -94 29 -159 100 -224 86
-79 190 -101 305 -64 75 24 159 107 184 182 66 199 -64 396 -267 407 -35 2
-76 0 -93 -5z"/>
<path d="M2147 4056 c-66 -24 -111 -61 -142 -117 l-30 -54 -3 -287 -4 -288 81
0 81 0 0 143 c0 165 8 187 65 187 57 0 65 -22 65 -187 l0 -143 325 0 325 0 0
148 c0 165 6 182 66 182 51 0 54 -11 54 -177 l0 -153 75 0 75 0 0 268 c0 292
-6 333 -54 397 -15 19 -48 47 -74 62 l-47 28 -410 2 c-328 2 -418 0 -448 -11z"/>
<path d="M777 3526 c-124 -46 -197 -146 -197 -270 0 -118 73 -227 178 -266 68
-26 176 -24 232 4 164 83 212 307 96 443 -73 84 -213 125 -309 89z"/>
<path d="M4167 3526 c-55 -20 -111 -60 -141 -99 -84 -109 -72 -279 26 -374 59
-56 101 -75 179 -81 95 -7 159 17 224 82 91 90 111 211 54 324 -32 65 -67 100
-133 134 -52 27 -156 34 -209 14z"/>
<path d="M1675 3186 c-64 -29 -126 -99 -159 -179 -22 -53 -444 -1461 -476
-1589 -18 -69 0 -119 64 -183 88 -89 126 -98 408 -103 l236 -4 4 -261 c3 -258
4 -263 29 -318 36 -76 133 -169 177 -169 9 0 12 82 12 375 l0 375 85 0 85 0 0
-390 0 -390 445 0 445 0 0 390 0 390 85 0 85 0 0 -375 c0 -206 4 -375 8 -375
16 0 87 56 116 91 67 79 71 97 74 391 l3 266 247 4 c233 4 250 6 307 28 84 34
158 109 174 176 12 49 11 51 -219 834 -150 513 -242 810 -265 857 -41 83 -111
153 -173 171 -29 9 -262 12 -893 12 l-854 0 -50 -24z m1078 -360 c77 -37 148
-110 189 -193 31 -64 33 -73 33 -178 0 -104 -2 -114 -32 -176 -40 -81 -117
-160 -192 -196 -50 -25 -67 -28 -161 -28 -97 0 -110 2 -170 31 -83 39 -150
106 -192 192 -31 63 -33 72 -33 177 0 99 3 116 27 167 36 77 71 121 131 165
79 58 135 74 247 70 81 -2 105 -7 153 -31z m417 -927 c77 -36 124 -80 157
-147 l28 -57 5 -283 5 -283 -80 3 -80 3 -5 93 c-4 83 -8 96 -29 113 -35 28
-77 24 -112 -10 -28 -28 -29 -34 -29 -115 l0 -86 -445 0 -445 0 0 80 c0 89
-11 123 -47 139 -38 18 -72 13 -98 -14 -23 -22 -25 -32 -25 -115 l0 -90 -81 0
-80 0 3 288 c3 276 4 289 26 329 50 94 137 158 236 173 28 5 274 7 546 7 l495
-2 55 -26z"/>
<path d="M726 2856 c-47 -18 -91 -59 -117 -108 -18 -35 -19 -65 -19 -533 0
-538 -1 -532 56 -589 49 -49 98 -66 200 -66 l90 0 103 338 102 337 -3 251 -3
251 -28 40 c-15 22 -46 50 -70 64 -37 21 -57 24 -157 26 -81 2 -126 -1 -154
-11z"/>
<path d="M4130 2861 c-75 -23 -125 -71 -149 -140 -6 -20 -11 -101 -10 -200 l0
-166 122 -395 122 -395 70 -3 c46 -2 84 2 112 13 44 17 107 79 123 121 6 15
10 228 10 517 0 454 -2 495 -19 532 -23 51 -79 101 -128 114 -43 12 -215 13
-253 2z"/>
</g>
</svg>
