<?xml version="1.0" standalone="no"?>
<!DOCTYPE svg PUBLIC "-//W3C//DTD SVG 20010904//EN"
 "http://www.w3.org/TR/2001/REC-SVG-20010904/DTD/svg10.dtd">
<svg version="1.0" xmlns="http://www.w3.org/2000/svg"
 width="225.000000pt" height="225.000000pt" viewBox="0 0 225.000000 225.000000"
 preserveAspectRatio="xMidYMid meet">

<g transform="translate(0.000000,225.000000) scale(0.100000,-0.100000)"
fill="#000000" stroke="none">
<path d="M1547 2146 c-102 -38 -152 -115 -145 -225 3 -53 9 -77 31 -109 86
-130 283 -131 373 -1 24 35 29 54 32 113 3 64 0 76 -27 123 -53 90 -170 134
-264 99z"/>
<path d="M1306 1641 c-17 -11 -108 -140 -218 -308 -159 -242 -188 -292 -183
-316 4 -26 -19 -67 -111 -196 -2 -2 -44 24 -94 58 -76 51 -98 61 -134 61 -28
0 -52 -7 -69 -20 -35 -28 -297 -404 -310 -445 -13 -44 -1 -99 28 -132 24 -27
25 -27 37 -8 6 11 28 36 48 55 73 71 193 79 280 20 l25 -17 189 273 c121 177
198 278 215 287 16 7 79 88 166 214 76 111 140 201 141 200 1 -1 -11 -72 -27
-157 -33 -179 -33 -189 -16 -256 15 -59 437 -808 474 -841 34 -32 78 -30 114
6 16 17 29 40 29 54 0 14 -72 191 -160 394 l-159 369 45 240 c52 273 54 325
11 389 -48 71 -86 90 -196 93 -82 2 -100 0 -125 -17z"/>
<path d="M1697 1340 c-3 -8 -14 -61 -25 -117 l-18 -102 118 -96 c155 -126 166
-132 207 -116 32 14 45 41 39 82 -2 16 -48 61 -138 137 -123 104 -137 120
-157 171 -13 34 -23 50 -26 41z"/>
<path d="M1222 803 c-48 -181 -59 -205 -192 -407 -71 -110 -130 -208 -130
-217 0 -54 54 -98 105 -85 34 9 300 365 342 459 l31 69 -66 114 c-36 63 -69
114 -72 114 -3 0 -11 -21 -18 -47z"/>
<path d="M393 345 c-104 -45 -94 -207 15 -245 37 -13 47 -13 84 0 110 39 119
202 13 246 -43 17 -71 17 -112 -1z"/>
</g>
</svg>
